<?xml version="1.0" standalone="no"?>
<!DOCTYPE svg PUBLIC "-//W3C//DTD SVG 20010904//EN"
 "http://www.w3.org/TR/2001/REC-SVG-20010904/DTD/svg10.dtd">
<svg version="1.0" xmlns="http://www.w3.org/2000/svg"
 width="700.000000pt" height="700.000000pt" viewBox="0 0 700.000000 700.000000"
 preserveAspectRatio="xMidYMid meet">
<metadata>
Created by potrace 1.14, written by Peter Selinger 2001-2017
</metadata>
<g transform="translate(0.000000,700.000000) scale(0.100000,-0.100000)"
fill="#000000" stroke="none">
<path d="M353 6007 c-1 -23 -14 -172 -18 -197 -2 -14 -7 -72 -11 -130 -4 -58
-8 -123 -9 -145 -23 -324 -23 -896 -1 -1120 2 -16 7 -59 10 -95 4 -36 9 -85
12 -110 2 -25 7 -56 9 -70 3 -14 7 -43 10 -65 23 -187 120 -566 170 -662 8
-15 15 -31 15 -36 0 -22 98 -208 152 -288 205 -307 492 -471 813 -464 55 1
117 6 138 10 45 9 45 15 12 -140 -14 -66 -28 -133 -31 -150 -3 -16 -21 -104
-40 -195 -19 -90 -34 -170 -34 -177 0 -6 10 -15 23 -18 12 -4 137 -44 277 -90
140 -46 431 -140 645 -210 215 -69 399 -130 410 -134 11 -5 148 -50 303 -101
201 -65 292 -90 310 -85 29 6 176 54 712 229 574 188 1174 384 1198 391 12 3
22 11 22 17 0 6 -12 67 -26 137 -14 69 -27 135 -30 146 -2 11 -20 100 -40 198
-20 97 -35 179 -33 182 3 2 31 0 64 -4 92 -13 251 -5 337 18 166 43 303 124
433 255 133 133 241 307 323 516 27 69 78 221 88 263 2 9 6 25 8 35 12 45 46
201 51 232 3 19 7 46 10 60 14 73 29 187 40 305 4 39 9 84 11 100 22 187 22
913 -1 1135 -2 19 -6 82 -10 140 -3 58 -8 112 -10 120 -2 8 -7 58 -10 110 -4
52 -8 96 -10 98 -1 2 -90 -102 -196 -230 -106 -128 -196 -235 -199 -238 -3 -3
-23 -27 -45 -55 -22 -27 -53 -66 -70 -86 -16 -19 -48 -58 -71 -85 -94 -112
-268 -322 -299 -359 -155 -187 -502 -605 -519 -625 -11 -14 -50 -61 -86 -105
-35 -44 -71 -86 -78 -94 -7 -8 -39 -45 -69 -83 -60 -74 -52 -71 -143 -54 -39
8 -49 10 -105 20 -35 7 -161 32 -206 41 -9 2 -32 6 -50 9 -62 10 -254 46 -269
51 -8 2 -32 6 -53 9 -21 4 -71 13 -110 20 -40 8 -169 33 -287 55 -118 23 -233
44 -255 49 -27 5 -67 2 -120 -9 -78 -16 -445 -87 -495 -95 -14 -3 -48 -9 -76
-15 -28 -5 -64 -12 -80 -15 -16 -3 -87 -16 -159 -29 -71 -14 -141 -27 -155
-30 -120 -22 -254 -48 -295 -57 -120 -24 -92 -43 -281 185 -93 113 -182 222
-199 243 -16 20 -35 42 -40 48 -6 6 -42 49 -80 96 -39 47 -80 96 -92 110 -12
14 -171 205 -353 425 -182 220 -339 409 -348 420 -10 11 -102 122 -206 248
-103 125 -191 229 -195 232 -4 2 -8 -1 -8 -8z m6045 -874 c0 -10 3 -74 7 -143
14 -211 8 -606 -10 -746 -2 -17 -7 -60 -10 -95 -5 -52 -40 -252 -60 -346 -3
-12 -23 -77 -45 -145 -92 -286 -252 -517 -434 -627 -71 -43 -159 -78 -216 -86
-24 -4 -47 -8 -50 -10 -10 -6 -33 12 -36 27 -1 7 -7 39 -13 70 -12 57 -14 68
-8 68 1 0 27 7 57 16 235 69 390 262 435 539 16 97 9 404 -10 423 -2 2 -55
-23 -117 -56 -62 -33 -158 -83 -213 -112 -55 -29 -136 -71 -180 -95 -44 -23
-120 -64 -170 -90 -49 -27 -85 -42 -79 -34 41 53 161 207 171 219 7 8 34 43
60 76 26 34 62 78 78 99 17 21 135 171 263 334 128 163 245 311 260 330 15 19
73 93 130 165 57 72 117 149 135 170 18 21 36 45 40 52 11 19 16 17 15 -3z
m-5716 -79 c35 -44 75 -96 90 -115 15 -19 118 -149 228 -289 110 -140 214
-272 231 -292 16 -20 58 -73 92 -116 34 -44 132 -169 217 -277 85 -108 170
-217 189 -242 l34 -45 -89 47 c-49 26 -120 64 -159 85 -38 21 -117 62 -175 92
-58 31 -157 83 -221 117 -64 33 -119 61 -121 61 -11 0 -20 -88 -23 -210 -8
-332 93 -562 303 -690 32 -20 85 -44 118 -54 77 -24 90 -31 85 -48 -2 -7 -10
-43 -19 -80 -14 -63 -16 -66 -41 -62 -125 21 -217 58 -314 128 -242 174 -412
528 -482 1006 -42 289 -48 564 -22 1058 1 22 14 10 79 -74z m2096 -1394 c192
-40 356 -220 435 -477 l25 -83 -91 -1 c-51 0 -148 -2 -216 -3 l-123 -2 -81 88
c-45 48 -84 88 -87 88 -3 0 -18 -13 -35 -28 -16 -15 -63 -56 -104 -90 l-74
-62 -213 0 -214 0 30 83 c120 330 454 547 748 487z m1691 -10 c124 -35 210
-86 315 -188 92 -90 144 -172 190 -299 l26 -73 -215 0 -214 0 -106 92 -107 91
-41 -45 c-23 -25 -60 -65 -83 -89 l-41 -45 -214 4 c-117 2 -214 4 -215 5 -5 7
60 188 87 240 133 264 363 377 618 307z m-624 -995 c50 -4 93 -10 96 -13 3 -4
23 -54 44 -112 21 -58 44 -118 51 -135 7 -16 27 -68 44 -115 18 -47 33 -86 35
-88 2 -2 92 75 325 278 30 26 81 70 114 97 l58 50 72 -3 c79 -4 206 -12 220
-13 8 -1 6 -22 -9 -106 -7 -39 -39 -124 -62 -167 -99 -182 -287 -324 -560
-421 -65 -24 -345 -97 -369 -97 -12 0 -327 267 -332 281 -12 30 -40 -9 -113
-157 l-82 -165 -51 6 c-95 12 -121 17 -226 36 -493 94 -788 255 -928 509 -56
101 -100 279 -70 281 7 0 33 2 58 4 25 2 83 5 129 7 l84 3 65 -80 c35 -44 74
-91 86 -105 11 -14 63 -78 115 -143 52 -64 98 -117 102 -117 4 0 14 12 22 28
15 28 49 91 107 197 18 33 36 65 40 70 4 6 27 46 50 90 23 44 45 83 49 87 3 4
78 9 166 13 88 3 161 8 164 10 5 6 395 -2 506 -10z"/>
</g>
</svg>
